<svg width="22" height="22" viewBox="0 0 22 22" fill="none" xmlns="http://www.w3.org/2000/svg">
<g id="pencil">
<g clip-path="url(#clip0_51_822)">
<g id="Group">
<path id="Vector" d="M16.7005 0.201002C16.7643 0.136978 16.8402 0.0861815 16.9237 0.0515227C17.0073 0.0168638 17.0968 -0.000976563 17.1872 -0.000976562C17.2777 -0.000976562 17.3672 0.0168638 17.4507 0.0515227C17.5343 0.0861815 17.6101 0.136978 17.674 0.201002L21.799 4.326C21.863 4.38986 21.9138 4.46573 21.9485 4.54926C21.9831 4.63278 22.001 4.72232 22.001 4.81275C22.001 4.90318 21.9831 4.99272 21.9485 5.07625C21.9138 5.15977 21.863 5.23564 21.799 5.2995L8.04898 19.0495C7.983 19.115 7.90442 19.1665 7.81798 19.2008L0.942983 21.9508C0.818045 22.0008 0.681178 22.013 0.549348 21.986C0.417518 21.9589 0.296523 21.8938 0.201364 21.7986C0.106205 21.7035 0.0410669 21.5825 0.0140241 21.4506C-0.0130186 21.3188 -0.000776316 21.1819 0.0492333 21.057L2.79923 14.182C2.83351 14.0956 2.88496 14.017 2.95048 13.951L16.7005 0.201002ZM15.4094 3.43775L18.5622 6.59063L20.3401 4.81275L17.1872 1.65988L15.4094 3.43775ZM17.5901 7.56275L14.4372 4.40988L5.49973 13.3474V13.7503H6.18723C6.36957 13.7503 6.54444 13.8227 6.67337 13.9516C6.8023 14.0805 6.87473 14.2554 6.87473 14.4378V15.1253H7.56223C7.74457 15.1253 7.91944 15.1977 8.04837 15.3266C8.1773 15.4555 8.24973 15.6304 8.24973 15.8128V16.5002H8.65261L17.5901 7.56275ZM4.16873 14.6784L4.02298 14.8241L1.92198 20.078L7.17586 17.977L7.32161 17.8313C7.19046 17.7822 7.0774 17.6944 6.99754 17.5794C6.91768 17.4644 6.87484 17.3278 6.87473 17.1877V16.5002H6.18723C6.0049 16.5002 5.83003 16.4278 5.7011 16.2989C5.57217 16.17 5.49973 15.9951 5.49973 15.8128V15.1253H4.81223C4.67223 15.1251 4.5356 15.0823 4.4206 15.0024C4.30561 14.9226 4.21773 14.8095 4.16873 14.6784Z" fill="black"/>
</g>
</g>
</g>
<defs>
<clipPath id="clip0_51_822">
<rect width="22" height="22" rx="5" fill="white"/>
</clipPath>
</defs>
</svg>
