<svg width="24" height="24" viewBox="0 0 24 24" fill="none" xmlns="http://www.w3.org/2000/svg">
<g id="eye">
<path id="Vector" d="M20.2674 11.4411L16.2507 7.42447L16.2229 7.45231C15.1112 6.41431 13.6196 5.77783 11.9785 5.77783C10.1355 5.77783 8.4805 6.57967 7.34122 7.85287L3.60298 11.5914L3.60586 11.5942C3.50226 11.7106 3.44481 11.8608 3.44434 12.0166C3.44458 12.1127 3.46647 12.2074 3.5084 12.2938C3.55033 12.3802 3.6112 12.456 3.6865 12.5156L7.74154 16.5704L7.74994 16.562C8.89873 17.6304 10.4099 18.2235 11.9787 18.2216C13.8195 18.2216 15.4729 17.4217 16.6119 16.1511L16.6268 16.166L20.3418 12.451C20.3573 12.437 20.3721 12.4221 20.3862 12.4066L20.3864 12.4064C20.4899 12.2922 20.5544 12.1424 20.5544 11.9763C20.5545 11.8703 20.5283 11.766 20.4782 11.6726C20.4281 11.5792 20.3557 11.4997 20.2674 11.4411ZM11.9787 16.2159C9.65026 16.2159 7.76266 14.3283 7.76266 11.9998C7.76266 9.67159 9.65026 7.78399 11.9787 7.78399C14.3072 7.78399 16.1951 9.67159 16.1951 11.9998C16.1951 14.3283 14.3072 16.2159 11.9787 16.2159Z" fill="black"/>
<path id="Vector_2" d="M11.9975 14.0613C13.1257 14.0613 14.0403 13.1467 14.0403 12.0185C14.0403 10.8902 13.1257 9.97559 11.9975 9.97559C10.8692 9.97559 9.95459 10.8902 9.95459 12.0185C9.95459 13.1467 10.8692 14.0613 11.9975 14.0613Z" fill="black"/>
</g>
</svg>
