<svg width="27" height="27" viewBox="0 0 27 27" fill="none" xmlns="http://www.w3.org/2000/svg">
<g id="trash-can">
<path id="Vector" d="M10.125 10.125H11.8125V20.25H10.125V10.125Z" fill="black"/>
<path id="Vector_2" d="M15.1875 10.125H16.875V20.25H15.1875V10.125Z" fill="black"/>
<path id="Vector_3" d="M3.375 5.0625V6.75H5.0625V23.625C5.0625 24.0726 5.24029 24.5018 5.55676 24.8182C5.87322 25.1347 6.30245 25.3125 6.75 25.3125H20.25C20.6976 25.3125 21.1268 25.1347 21.4432 24.8182C21.7597 24.5018 21.9375 24.0726 21.9375 23.625V6.75H23.625V5.0625H3.375ZM6.75 23.625V6.75H20.25V23.625H6.75Z" fill="black"/>
<path id="Vector_4" d="M10.125 1.6875H16.875V3.375H10.125V1.6875Z" fill="black"/>
</g>
</svg>
